# xmcd CD database file generated by Grip 3.0.3
# 
# Track frame offsets:
#       150
#       24670
#       48395
# 
# Disc length: 968 seconds
# 
# Revision: 2
# Processed by: cddbd v1.4PL0 Copyright (c) Steve Scherf et al.
# Submitted via: Grip 3.0.3
# 
DISCID=1e03c603
DTITLE=Live - Lightning Crashes CD 2
DYEAR=1995
DGENRE=Rock
TTITLE0=Lightning Crashes
TTITLE1=Lightning Crashes (Glastonbury '95)
TTITLE2=White Discussion (Glastonbury '95)
EXTD=
EXTT0=
EXTT1=
EXTT2=
PLAYORDER=
